<?xml version="1.0" encoding="UTF-8" standalone="no" ?>
<!DOCTYPE svg PUBLIC "-//W3C//DTD SVG 1.1//EN" "http://www.w3.org/Graphics/SVG/1.1/DTD/svg11.dtd">
<svg xmlns="http://www.w3.org/2000/svg" xmlns:xlink="http://www.w3.org/1999/xlink" version="1.1" width="1024" height="1024" viewBox="0 0 1024 1024" xml:space="preserve">
<desc>Created with Fabric.js 3.1.0</desc>
<defs>
</defs>
<g transform="matrix(1 0 0 1 512 512)" id="background-logo"  >
<rect style="stroke: none; stroke-width: 1; stroke-dasharray: none; stroke-linecap: butt; stroke-dashoffset: 0; stroke-linejoin: miter; stroke-miterlimit: 4; fill: rgb(255,255,255); fill-rule: nonzero; opacity: 1;"  paint-order="stroke"  x="-512" y="-512" rx="0" ry="0" width="1024" height="1024" />
</g>
<g transform="matrix(1.5745007680491552 0 0 1.5745007680491552 527.475305835994 405.6031105990783)" style="" id="logo-logo"  >
	<g transform="matrix(2.366 0 0 -2.366 60.58400000000003 -7.357999999999976)" id="logo-logo"  >
<path style="stroke: none; stroke-width: 1; stroke-dasharray: none; stroke-linecap: butt; stroke-dashoffset: 0; stroke-linejoin: miter; stroke-miterlimit: 4; fill: rgb(46,49,146); fill-rule: nonzero; opacity: 1;"  paint-order="stroke"  transform=" translate(9, -2.625000000000007)" d="m 0 0 v -27.56 c -0.11 -0.17 -0.23 -0.34 -0.34 -0.51 c -3.67 -5.36 -9.88 -8.46 -17.66 -8.83 v 60.13 v 2.21 l 0.99 0.81 c 3.61 2.94 7.1 6.03 10.46 9.26 v 0.01 c 0.97 0.92 1.93 1.86 2.87 2.81 c 1.25 1.25 2.47 2.53 3.68 3.82 L 0 33.89 V 30.72 V 6.75 Z" stroke-linecap="round" />
</g>
	<g transform="matrix(2.366 0 0 -2.366 0 2.842171e-14)" id="logo-logo"  >
<path style="stroke: none; stroke-width: 1; stroke-dasharray: none; stroke-linecap: butt; stroke-dashoffset: 0; stroke-linejoin: miter; stroke-miterlimit: 4; fill: rgb(27,20,100); fill-rule: nonzero; opacity: 1;"  paint-order="stroke"  transform=" translate(58.528390582164576, -9.445188448207908)" d="m 0 0 c 1.09 -4.84 1.55 -9.48 1.36 -13.84 l -9.37 0.9 l 8.69 -6.79 c -0.77 -4.2 -2.11 -8.1 -4.1 -11.54 l -9.47 4.11 l 6.451 -8.41 c -2.5 -3.04 -5.551 -5.6 -9.121 -7.62 l -8.33 6.62 l 3.49 -8.92 c -3.86 -1.48 -8.2 -2.34 -12.92 -2.62 l -6.21 8.23 l 0.15 -8.24 c -4.93 0.25 -9.93 1.09 -14.92 2.55 l -3.389 8.92 l -3.211 -6.65 c -5.11 1.99 -10.14 4.54 -14.98 7.56 l -0.01 1.49 l -0.01 3 l -0.02 3.93 l -5.97 -3.93 h -0.6 c -1.16 0.86 -2.31 1.76 -3.43 2.68 c -1.02 0.83 -2.01 1.68 -3 2.55 c -2.17 1.93 -4.27 3.95 -6.28 6.06 l 3.44 6.82 l -8.66 -0.95 c -3.55 4.35 -6.67 8.99 -9.31 13.83 l 6.66 4.22 l -9.97 2.56 c -0.39 0.91 -0.82 1.8 -1.18 2.71 c -1.53 3.96 -2.63 7.83 -3.34 11.57 l 9.24 0.89 l -10.05 5.95 c -0.27 4.55 0.08 8.85 1.02 12.82 l 10.54 -2.83 l -8.64 8.7 c 1.54 3.62 3.68 6.83 6.31 9.62 l 10.41 -6.3 l -5.91 10.33 c 3.09 2.23 6.7 3.92 10.69 5.11 l 8.77 -8.97 l -2.2 10.4 c 2.12 0.29 4.3 0.48 6.6 0.49 c 2.3 0.01 4.63 -0.18 6.96 -0.45 l 5.83 -10.4 l 1.84 9 c 4.9 -1.17 9.81 -2.84 14.61 -5.05 l 2.061 -10.33 l 5.54 6.33 c 4.089 -2.38 8.069 -5.07 11.849 -8.07 c -3.62 -3.5 -7.41 -6.85 -11.32 -10.01 c -9.37 6.65 -20.12 10.72 -30.23 10.72 h -0.09 C -94.74 48.7 -104.97 31.02 -96.58 9.28 c 1.86 -4.82 4.48 -9.44 7.66 -13.71 c 0.96 -1.28 1.96 -2.52 3 -3.73 c 5.14 -5.93 11.35 -11.01 18 -14.78 c 0.33 -0.18 0.67 -0.37 1 -0.55 c 0.66 -0.36 1.33 -0.71 2 -1.04 c 0.33 -0.16 0.67 -0.33 1 -0.48 c 5.89 -2.8 12.03 -4.54 18 -4.92 c 0.34 -0.02 0.67 -0.04 1 -0.05 c 0.53 -0.02 1.06 -0.03 1.58 -0.03 c 0.14 0 0.28 0 0.42 0.01 c 0.34 0 0.67 0.01 1 0.02 c 7.68 0.32 13.81 3.06 18 7.51 c 1.15 1.21 2.16 2.56 3 4.02 c 4.16 7.14 4.63 17.01 0.43 27.91 c -0.14 0.36 -0.28 0.73 -0.43 1.09 v 27.17 c 2.89 -3.1 5.57 -6.39 8.02 -9.82 l -5.44 -5.99 l 9.901 -0.84 C -6.26 17.34 -4.38 13.47 -2.85 9.5 C -2.5 8.59 -2.24 7.7 -1.939 6.79 L -9.91 4.19 Z" stroke-linecap="round" />
</g>
	<g transform="matrix(2.366 0 0 -2.366 8.53700000000006 16.040000000000063)" id="logo-logo"  >
<path style="stroke: none; stroke-width: 1; stroke-dasharray: none; stroke-linecap: butt; stroke-dashoffset: 0; stroke-linejoin: miter; stroke-miterlimit: 4; fill: rgb(0,113,188); fill-rule: nonzero; opacity: 1;"  paint-order="stroke"  transform=" translate(9, 29.585)" d="m 0 0 v -59.17 c -5.97 0.41 -12.13 2.26 -18 5.22 v 42.04 C -11.74 -8.32 -5.73 -4.33 0 0" stroke-linecap="round" />
</g>
	<g transform="matrix(2.366 0 0 -2.366 -43.50999999999996 23.966000000000022)" id="logo-logo"  >
<path style="stroke: none; stroke-width: 1; stroke-dasharray: none; stroke-linecap: butt; stroke-dashoffset: 0; stroke-linejoin: miter; stroke-miterlimit: 4; fill: rgb(41,171,226); fill-rule: nonzero; opacity: 1;"  paint-order="stroke"  transform=" translate(9, 18.805)" d="m 0 0 v -37.61 c -6.81 4.1 -13.07 9.64 -18 16.06 v 13.16 c 6.19 2.46 12.19 5.26 18 8.39" stroke-linecap="round" />
</g>
</g>
<g transform="matrix(1.5745007680491552 0 0 1.5745007680491552 535.2134507854811 703.7296053875857)"  >
<filter id="SVGID_36802" y="-20%" height="140%" x="-20%" width="140%" >
	<feGaussianBlur in="SourceAlpha" stdDeviation="0"></feGaussianBlur>
	<feOffset dx="0" dy="0" result="oBlur" ></feOffset>
	<feFlood flood-color="rgb(0,0,0)" flood-opacity="1"/>
	<feComposite in2="oBlur" operator="in" />
	<feMerge>
		<feMergeNode></feMergeNode>
		<feMergeNode in="SourceGraphic"></feMergeNode>
	</feMerge>
</filter>
<path style="stroke: none; stroke-width: 1; stroke-dasharray: none; stroke-linecap: butt; stroke-dashoffset: 0; stroke-linejoin: miter; stroke-miterlimit: 4; fill: rgb(28,20,100); fill-rule: nonzero; opacity: 1;filter: url(#SVGID_36802);"  paint-order="stroke"  transform=" translate(-74.02999999999999, 21.279999999999998)" d="M 30.58 -10.02 L 30.8 -10.02 L 45.36 -43.12 L 57.9 -43.12 L 57.9 -40.99 Q 56.11 -40.94 55.02 -40.54 Q 53.93 -40.15 53.34 -39.23 Q 52.75 -38.3 52.56 -36.68 Q 52.36 -35.06 52.36 -32.54 L 52.36 -32.54 L 52.36 -10.58 Q 52.36 -7.78 52.58 -6.16 Q 52.81 -4.54 53.45 -3.64 Q 54.1 -2.74 55.3 -2.46 Q 56.5 -2.18 58.46 -2.13 L 58.46 -2.13 L 58.46 0 L 40.32 0 L 40.32 -2.13 Q 42.28 -2.18 43.48 -2.49 Q 44.69 -2.8 45.36 -3.64 Q 46.03 -4.48 46.26 -6.02 Q 46.48 -7.56 46.48 -10.19 L 46.48 -10.19 L 46.48 -36.18 L 45.92 -36.18 L 29.57 0.56 L 28.34 0.56 L 12.26 -36.18 L 12.04 -36.18 L 12.04 -10.58 Q 12.04 -7.78 12.26 -6.16 Q 12.49 -4.54 13.13 -3.64 Q 13.78 -2.74 14.98 -2.46 Q 16.18 -2.18 18.14 -2.13 L 18.14 -2.13 L 18.14 0 L 2.52 0 L 2.52 -2.13 Q 4.48 -2.18 5.68 -2.49 Q 6.89 -2.8 7.56 -3.64 Q 8.23 -4.48 8.46 -6.02 Q 8.68 -7.56 8.68 -10.19 L 8.68 -10.19 L 8.68 -32.93 Q 8.68 -35.28 8.48 -36.82 Q 8.29 -38.36 7.7 -39.26 Q 7.11 -40.15 5.99 -40.52 Q 4.87 -40.88 3.08 -40.99 L 3.08 -40.99 L 3.08 -43.12 L 16.46 -43.12 L 30.58 -10.02 Z M 104.5 -43.12 L 105.06 -32.42 L 102.76 -32.42 Q 102.59 -34.83 101.98 -36.46 Q 101.36 -38.08 100.21 -39 Q 99.06 -39.93 97.33 -40.32 Q 95.59 -40.71 93.18 -40.71 L 93.18 -40.71 Q 91.11 -40.71 89.85 -40.63 Q 88.59 -40.54 87.92 -40.32 Q 87.25 -40.1 87.05 -39.79 Q 86.86 -39.48 86.86 -38.98 L 86.86 -38.98 L 86.86 -9.02 Q 86.86 -7.22 87.11 -5.94 Q 87.36 -4.65 88.12 -3.84 Q 88.87 -3.02 90.3 -2.6 Q 91.73 -2.18 94.08 -2.13 L 94.08 -2.13 L 94.08 0 L 72.91 0 L 72.91 -2.13 Q 75.26 -2.18 76.72 -2.6 Q 78.18 -3.02 78.93 -3.84 Q 79.69 -4.65 79.94 -5.94 Q 80.19 -7.22 80.19 -9.02 L 80.19 -9.02 L 80.19 -38.98 Q 80.19 -39.48 80 -39.79 Q 79.8 -40.1 79.21 -40.32 Q 78.62 -40.54 77.56 -40.63 Q 76.5 -40.71 74.7 -40.71 L 74.7 -40.71 Q 72.52 -40.71 70.64 -40.54 Q 68.77 -40.38 67.4 -39.56 Q 66.02 -38.75 65.18 -37.07 Q 64.34 -35.39 64.29 -32.42 L 64.29 -32.42 L 62.22 -32.42 L 62.22 -43.12 L 104.5 -43.12 Z M 145.54 -11.03 L 144.7 0 L 108.53 0 L 108.53 -2.13 Q 110.49 -2.18 111.69 -2.46 Q 112.9 -2.74 113.57 -3.42 Q 114.24 -4.09 114.46 -5.32 Q 114.69 -6.55 114.69 -8.51 L 114.69 -8.51 L 114.69 -34.61 Q 114.69 -36.57 114.49 -37.77 Q 114.3 -38.98 113.71 -39.68 Q 113.12 -40.38 112 -40.63 Q 110.88 -40.88 109.09 -40.99 L 109.09 -40.99 L 109.09 -43.12 L 126.11 -43.12 L 126.11 -40.99 Q 124.32 -40.94 123.23 -40.66 Q 122.14 -40.38 121.55 -39.65 Q 120.96 -38.92 120.76 -37.63 Q 120.57 -36.34 120.57 -34.22 L 120.57 -34.22 L 120.57 -10.08 Q 120.57 -7.73 121.04 -6.24 Q 121.52 -4.76 122.67 -3.95 Q 123.82 -3.14 125.72 -2.83 Q 127.62 -2.52 130.54 -2.52 L 130.54 -2.52 Q 133.73 -2.52 135.91 -2.88 Q 138.1 -3.25 139.58 -4.17 Q 141.06 -5.1 141.93 -6.75 Q 142.8 -8.4 143.42 -11.03 L 143.42 -11.03 L 145.54 -11.03 Z" stroke-linecap="round" />
</g>
<g transform="matrix(1.5745007680491552 0 0 1.5745007680491552 518.8770136704431 779.7723057840888)"  >
<filter id="SVGID_36803" y="-20%" height="140%" x="-20%" width="140%" >
	<feGaussianBlur in="SourceAlpha" stdDeviation="0"></feGaussianBlur>
	<feOffset dx="0" dy="0" result="oBlur" ></feOffset>
	<feFlood flood-color="rgb(0,0,0)" flood-opacity="1"/>
	<feComposite in2="oBlur" operator="in" />
	<feMerge>
		<feMergeNode></feMergeNode>
		<feMergeNode in="SourceGraphic"></feMergeNode>
	</feMerge>
</filter>
<path style="stroke: none; stroke-width: 1; stroke-dasharray: none; stroke-linecap: butt; stroke-dashoffset: 0; stroke-linejoin: miter; stroke-miterlimit: 4; fill: rgb(27,20,100); fill-rule: nonzero; opacity: 1;filter: url(#SVGID_36803);"  paint-order="stroke"  transform=" translate(-255.03, 8.928732951321965)" d="M 4.73 -0.84 L 2.55 -0.84 L 2.55 -21.83 L 3 -21.83 L 16.96 -5.76 L 16.96 -21.83 L 19.03 -21.83 L 19.03 -0.84 L 18.55 -0.84 L 4.73 -16.71 L 4.73 -0.84 Z M 31.14 -17.11 L 31.14 -17.11 Q 34.72 -17.11 37.09 -14.51 L 37.09 -14.51 Q 39.22 -12.14 39.22 -8.89 L 39.22 -8.89 Q 39.22 -5.65 36.96 -3.22 Q 34.69 -0.79 31.14 -0.79 L 31.14 -0.79 Q 27.57 -0.79 25.31 -3.22 Q 23.05 -5.65 23.05 -8.89 L 23.05 -8.89 Q 23.05 -12.12 25.19 -14.5 L 25.19 -14.5 Q 27.56 -17.11 31.14 -17.11 Z M 31.14 -15.15 L 31.14 -15.15 Q 28.66 -15.15 26.88 -13.31 Q 25.09 -11.47 25.09 -8.86 L 25.09 -8.86 Q 25.09 -7.18 25.91 -5.71 Q 26.72 -4.25 28.11 -3.46 Q 29.5 -2.68 31.14 -2.68 L 31.14 -2.68 Q 32.81 -2.68 34.19 -3.46 Q 35.57 -4.25 36.38 -5.71 Q 37.18 -7.18 37.18 -8.86 L 37.18 -8.86 Q 37.18 -11.47 35.4 -13.31 Q 33.62 -15.15 31.14 -15.15 Z M 42.89 -0.81 L 42.89 -6.7 L 42.86 -8.35 Q 42.82 -9.57 42.96 -10.42 L 42.96 -10.42 Q 43.27 -13.1 44.32 -14.34 L 44.32 -14.34 Q 45.34 -15.43 46.4 -16.03 L 46.4 -16.03 Q 48.16 -16.78 50.41 -16.74 L 50.41 -16.74 Q 52.17 -16.74 53.66 -15.85 Q 55.15 -14.97 55.79 -13.47 Q 56.43 -11.98 56.43 -8.79 L 56.43 -8.79 L 56.43 -0.81 L 54.45 -0.81 L 54.45 -8.21 Q 54.45 -10.9 54.22 -11.81 L 54.22 -11.81 Q 53.87 -13.35 52.82 -14 Q 51.77 -14.64 49.72 -14.64 L 49.72 -14.64 Q 47.9 -14.64 46.49 -13.59 Q 45.07 -12.55 45.17 -10.73 L 45.17 -10.73 Q 44.9 -9.57 44.9 -6.5 L 44.9 -6.5 L 44.9 -0.81 L 42.89 -0.81 Z M 61.29 -10.08 L 61.29 -11.84 L 69.13 -11.84 L 69.13 -10.08 L 61.29 -10.08 Z M 89.73 -13.48 L 89.73 -13.48 L 88.15 -12.49 Q 86.09 -15.24 82.54 -15.24 L 82.54 -15.24 Q 79.69 -15.24 77.82 -13.41 Q 75.94 -11.58 75.94 -8.96 L 75.94 -8.96 Q 75.94 -7.26 76.8 -5.76 Q 77.67 -4.25 79.17 -3.43 Q 80.67 -2.61 82.54 -2.61 L 82.54 -2.61 Q 85.98 -2.61 88.15 -5.32 L 88.15 -5.32 L 89.73 -4.29 Q 88.61 -2.62 86.74 -1.71 Q 84.86 -0.79 82.45 -0.79 L 82.45 -0.79 Q 78.79 -0.79 76.36 -3.13 Q 73.93 -5.47 73.93 -8.81 L 73.93 -8.81 Q 73.93 -11.07 75.07 -13.01 Q 76.21 -14.94 78.19 -16.02 Q 80.16 -17.11 82.62 -17.11 L 82.62 -17.11 Q 84.15 -17.11 85.59 -16.64 Q 87.03 -16.17 88.03 -15.41 Q 89.04 -14.66 89.73 -13.48 Z M 100.89 -17.11 L 100.89 -17.11 Q 104.47 -17.11 106.84 -14.51 L 106.84 -14.51 Q 108.98 -12.14 108.98 -8.89 L 108.98 -8.89 Q 108.98 -5.65 106.71 -3.22 Q 104.45 -0.79 100.89 -0.79 L 100.89 -0.79 Q 97.32 -0.79 95.06 -3.22 Q 92.81 -5.65 92.81 -8.89 L 92.81 -8.89 Q 92.81 -12.12 94.94 -14.5 L 94.94 -14.5 Q 97.31 -17.11 100.89 -17.11 Z M 100.89 -15.15 L 100.89 -15.15 Q 98.41 -15.15 96.63 -13.31 Q 94.84 -11.47 94.84 -8.86 L 94.84 -8.86 Q 94.84 -7.18 95.66 -5.71 Q 96.47 -4.25 97.86 -3.46 Q 99.25 -2.68 100.89 -2.68 L 100.89 -2.68 Q 102.56 -2.68 103.94 -3.46 Q 105.32 -4.25 106.13 -5.71 Q 106.94 -7.18 106.94 -8.86 L 106.94 -8.86 Q 106.94 -11.47 105.15 -13.31 Q 103.37 -15.15 100.89 -15.15 Z M 112.64 -0.81 L 112.64 -6.7 L 112.62 -8.35 Q 112.57 -9.57 112.71 -10.42 L 112.71 -10.42 Q 113.03 -13.1 114.07 -14.34 L 114.07 -14.34 Q 115.09 -15.43 116.16 -16.03 L 116.16 -16.03 Q 117.91 -16.78 120.16 -16.74 L 120.16 -16.74 Q 121.92 -16.74 123.41 -15.85 Q 124.91 -14.97 125.54 -13.47 Q 126.18 -11.98 126.18 -8.79 L 126.18 -8.79 L 126.18 -0.81 L 124.2 -0.81 L 124.2 -8.21 Q 124.2 -10.9 123.97 -11.81 L 123.97 -11.81 Q 123.62 -13.35 122.57 -14 Q 121.52 -14.64 119.47 -14.64 L 119.47 -14.64 Q 117.66 -14.64 116.24 -13.59 Q 114.82 -12.55 114.92 -10.73 L 114.92 -10.73 Q 114.65 -9.57 114.65 -6.5 L 114.65 -6.5 L 114.65 -0.81 L 112.64 -0.81 Z M 136.04 -3 L 136.04 -3 Q 134.56 -2.21 133.15 -2.87 L 133.15 -2.87 Q 131.42 -4.19 131.51 -6.63 L 131.51 -6.63 L 131.51 -13.2 L 135.19 -13.2 L 135.19 -14.91 L 131.49 -14.91 L 131.49 -22.42 L 129.48 -22.42 L 129.48 -6.29 Q 129.45 -4.59 130.26 -3.17 L 130.26 -3.17 Q 131.59 -0.92 133.88 -0.79 L 133.88 -0.79 Q 135.1 -0.75 136.66 -1.35 L 136.66 -1.35 Q 136.42 -1.94 136.04 -3 Z M 147.18 -17.11 L 147.18 -17.11 Q 150.76 -17.11 153.13 -14.51 L 153.13 -14.51 Q 155.31 -12.15 155.31 -8.89 L 155.31 -8.89 Q 155.34 -0.85 155.31 -0.72 L 155.31 -0.72 Q 153.95 -0.72 153.2 -0.72 L 153.2 -0.72 Q 153.2 -0.82 153.2 -4.25 L 153.2 -4.25 Q 151.54 -1.16 147.18 -0.79 L 147.18 -0.79 Q 143.61 -0.79 141.35 -3.22 Q 139.1 -5.65 139.1 -8.89 L 139.1 -8.89 Q 139.1 -12.12 141.23 -14.5 L 141.23 -14.5 Q 143.6 -17.11 147.18 -17.11 Z M 147.18 -15.15 L 147.18 -15.15 Q 144.7 -15.15 142.92 -13.31 Q 141.13 -11.47 141.13 -8.86 L 141.13 -8.86 Q 141.13 -7.18 142.05 -5.62 Q 142.96 -4.06 145.14 -2.99 L 145.14 -2.99 Q 150.61 -1.77 152.92 -7.96 L 152.92 -7.96 Q 153.04 -9.94 152.49 -11.75 L 152.49 -11.75 Q 152.09 -12.57 151.4 -13.31 L 151.4 -13.31 Q 149.66 -15.15 147.18 -15.15 Z M 174.25 -13.48 L 174.25 -13.48 L 172.67 -12.49 Q 170.62 -15.24 167.06 -15.24 L 167.06 -15.24 Q 164.22 -15.24 162.34 -13.41 Q 160.46 -11.58 160.46 -8.96 L 160.46 -8.96 Q 160.46 -7.26 161.33 -5.76 Q 162.19 -4.25 163.69 -3.43 Q 165.19 -2.61 167.06 -2.61 L 167.06 -2.61 Q 170.5 -2.61 172.67 -5.32 L 172.67 -5.32 L 174.25 -4.29 Q 173.14 -2.62 171.26 -1.71 Q 169.38 -0.79 166.98 -0.79 L 166.98 -0.79 Q 163.31 -0.79 160.88 -3.13 Q 158.45 -5.47 158.45 -8.81 L 158.45 -8.81 Q 158.45 -11.07 159.59 -13.01 Q 160.73 -14.94 162.71 -16.02 Q 164.68 -17.11 167.15 -17.11 L 167.15 -17.11 Q 168.68 -17.11 170.11 -16.64 Q 171.55 -16.17 172.56 -15.41 Q 173.56 -14.66 174.25 -13.48 Z M 183.67 -3 L 183.67 -3 Q 182.2 -2.21 180.78 -2.87 L 180.78 -2.87 Q 179.06 -4.19 179.14 -6.63 L 179.14 -6.63 L 179.14 -13.2 L 182.82 -13.2 L 182.82 -14.91 L 179.13 -14.91 L 179.13 -22.42 L 177.12 -22.42 L 177.12 -6.29 Q 177.09 -4.59 177.89 -3.17 L 177.89 -3.17 Q 179.23 -0.92 181.52 -0.79 L 181.52 -0.79 Q 182.74 -0.75 184.29 -1.35 L 184.29 -1.35 Q 184.05 -1.94 183.67 -3 Z M 196.9 -16.79 L 196.9 -16.79 L 194.76 -16.79 Q 195.35 -19.4 197 -20.8 Q 198.65 -22.2 200.92 -22.2 L 200.92 -22.2 Q 202.56 -22.2 203.98 -21.45 Q 205.39 -20.7 206.18 -19.43 Q 206.96 -18.15 206.96 -16.78 L 206.96 -16.78 Q 206.96 -14.06 204.26 -12.48 L 204.26 -12.48 Q 205.78 -11.87 206.74 -10.68 L 206.74 -10.68 Q 208.11 -9.01 208.11 -7.45 L 208.11 -7.45 Q 208.11 -5.66 207.17 -4.04 Q 206.23 -2.42 204.6 -1.54 Q 202.97 -0.65 200.96 -0.65 L 200.96 -0.65 Q 198.24 -0.65 196.44 -2.22 Q 194.63 -3.78 194.06 -6.8 L 194.06 -6.8 L 196.12 -6.8 Q 196.67 -4.76 197.69 -3.85 L 197.69 -3.85 Q 198.98 -2.69 200.98 -2.69 L 200.98 -2.69 Q 203.27 -2.69 204.66 -4.06 Q 206.04 -5.42 206.04 -7.28 L 206.04 -7.28 Q 206.12 -8.27 205.41 -9.35 Q 204.7 -10.42 203.51 -10.82 Q 202.32 -11.21 199.9 -11.34 L 199.9 -11.34 L 199.9 -13.28 Q 201.34 -13.28 202.52 -13.78 Q 203.69 -14.27 204.23 -15.07 Q 204.77 -15.86 204.77 -16.78 L 204.77 -16.78 Q 204.77 -18.15 203.67 -19.16 Q 202.58 -20.16 200.92 -20.16 L 200.92 -20.16 Q 199.56 -20.16 198.57 -19.4 Q 197.58 -18.63 196.9 -16.79 Z M 218.43 -0.89 L 211.75 -0.89 L 211.75 -21.89 L 216.1 -21.89 Q 220.81 -21.89 222.95 -21.13 L 222.95 -21.13 Q 226 -20.06 227.72 -17.42 Q 229.44 -14.78 229.44 -11.13 L 229.44 -11.13 Q 229.44 -7.99 228.07 -5.58 Q 226.7 -3.17 224.53 -2.03 Q 222.36 -0.89 218.43 -0.89 L 218.43 -0.89 Z M 213.76 -19.85 L 213.76 -2.89 L 216.18 -2.89 Q 220.53 -2.89 222.23 -3.43 L 222.23 -3.43 Q 224.59 -4.19 225.95 -6.2 Q 227.31 -8.2 227.31 -11.1 L 227.31 -11.1 Q 227.31 -14.15 225.85 -16.3 Q 224.38 -18.45 221.75 -19.24 L 221.75 -19.24 Q 219.77 -19.85 215.25 -19.85 L 215.25 -19.85 L 213.76 -19.85 Z M 241.64 -22.73 L 241.64 -22.73 Q 242.32 -22.73 242.81 -22.25 Q 243.3 -21.76 243.3 -21.08 L 243.3 -21.08 Q 243.3 -20.4 242.81 -19.92 Q 242.32 -19.43 241.64 -19.43 L 241.64 -19.43 Q 240.96 -19.43 240.48 -19.92 Q 240 -20.4 240 -21.08 L 240 -21.08 Q 240 -21.76 240.48 -22.25 Q 240.96 -22.73 241.64 -22.73 Z M 240.65 -0.81 L 240.65 -16.34 L 242.65 -16.34 L 242.65 -0.81 L 240.65 -0.81 Z M 246.77 -0.81 L 246.77 -6.7 L 246.74 -8.35 Q 246.7 -9.57 246.84 -10.42 L 246.84 -10.42 Q 247.15 -13.1 248.2 -14.34 L 248.2 -14.34 Q 249.22 -15.43 250.28 -16.03 L 250.28 -16.03 Q 252.04 -16.78 254.29 -16.74 L 254.29 -16.74 Q 256.04 -16.74 257.54 -15.85 Q 259.03 -14.97 259.67 -13.47 Q 260.31 -11.98 260.31 -8.79 L 260.31 -8.79 L 260.31 -0.81 L 258.32 -0.81 L 258.32 -8.21 Q 258.32 -10.9 258.1 -11.81 L 258.1 -11.81 Q 257.74 -13.35 256.7 -14 Q 255.65 -14.64 253.59 -14.64 L 253.59 -14.64 Q 251.78 -14.64 250.37 -13.59 Q 248.95 -12.55 249.05 -10.73 L 249.05 -10.73 Q 248.78 -9.57 248.78 -6.5 L 248.78 -6.5 L 248.78 -0.81 L 246.77 -0.81 Z M 272.37 -15.01 L 272.37 -15.01 L 271.1 -13.68 Q 269.48 -15.24 267.97 -15.24 L 267.97 -15.24 Q 266.99 -15.24 266.3 -14.6 Q 265.6 -13.96 265.6 -13.08 L 265.6 -13.08 Q 265.6 -12.35 266.18 -11.67 L 266.18 -11.67 Q 266.75 -10.95 268.58 -10.01 L 268.58 -10.01 Q 270.81 -8.86 271.61 -7.79 L 271.61 -7.79 Q 272.38 -6.7 272.38 -5.34 L 272.38 -5.34 Q 272.38 -3.44 271.05 -2.12 Q 269.71 -0.79 267.7 -0.79 L 267.7 -0.79 Q 266.35 -0.79 265.13 -1.37 Q 263.9 -1.94 263.11 -2.97 L 263.11 -2.97 L 264.37 -4.4 Q 265.9 -2.68 267.61 -2.68 L 267.61 -2.68 Q 268.8 -2.68 269.64 -3.45 Q 270.49 -4.22 270.49 -5.25 L 270.49 -5.25 Q 270.49 -6.12 269.94 -6.78 L 269.94 -6.78 Q 269.38 -7.45 267.43 -8.45 L 267.43 -8.45 Q 265.32 -9.52 264.57 -10.59 L 264.57 -10.59 Q 263.8 -11.64 263.8 -13 L 263.8 -13 Q 263.8 -14.77 265.01 -15.94 Q 266.23 -17.11 268.05 -17.11 L 268.05 -17.11 Q 270.19 -17.11 272.37 -15.01 Z M 277.14 -14.02 L 277.14 -14.02 Q 275.87 -11.89 275.61 -9.84 L 275.61 -9.84 Q 275.61 4.9 275.61 4.87 L 275.61 4.87 L 277.6 4.87 L 277.6 -3.79 Q 278.86 -2.25 280.41 -1.49 Q 281.97 -0.74 283.83 -0.74 L 283.83 -0.74 Q 287.11 -0.74 289.45 -3.13 Q 291.78 -5.52 291.78 -8.94 L 291.78 -8.94 Q 291.78 -12.29 289.43 -14.67 Q 287.08 -17.05 283.77 -17.05 L 283.77 -17.05 Q 281.87 -17.05 280.21 -16.32 Q 278.54 -15.59 277.14 -14.02 Z M 283.6 -15.14 L 283.6 -15.14 Q 285.28 -15.14 286.69 -14.31 Q 288.1 -13.48 288.94 -12.01 Q 289.77 -10.54 289.77 -8.86 L 289.77 -8.86 Q 289.77 -7.22 288.93 -5.71 Q 288.09 -4.21 286.67 -3.38 Q 285.24 -2.55 283.63 -2.55 L 283.63 -2.55 Q 281.99 -2.55 280.51 -3.38 Q 279.04 -4.21 278.25 -5.63 Q 277.45 -7.05 277.45 -8.81 L 277.45 -8.81 Q 277.45 -11.51 279.24 -13.32 Q 281.02 -15.14 283.6 -15.14 Z M 308.86 -6.33 L 308.86 -6.33 L 310.53 -5.44 Q 309.73 -3.81 308.63 -2.82 Q 307.54 -1.83 306.19 -1.31 Q 304.83 -0.79 303.11 -0.79 L 303.11 -0.79 Q 299.32 -0.79 297.18 -3.28 Q 295.04 -5.76 295.04 -8.89 L 295.04 -8.89 Q 295.04 -11.85 296.85 -14.16 L 296.85 -14.16 Q 299.15 -17.11 303.01 -17.11 L 303.01 -17.11 Q 306.96 -17.11 309.34 -14.09 L 309.34 -14.09 Q 311.03 -11.97 311.04 -8.79 L 311.04 -8.79 L 297.09 -8.79 Q 297.15 -6.07 298.82 -4.34 Q 300.49 -2.61 302.94 -2.61 L 302.94 -2.61 Q 304.13 -2.61 305.25 -3.02 Q 306.37 -3.44 307.16 -4.12 Q 307.94 -4.8 308.86 -6.33 Z M 297.31 -10.51 L 308.86 -10.51 Q 308.46 -12.11 307.7 -13.06 Q 306.94 -14.02 305.68 -14.61 Q 304.42 -15.19 303.03 -15.19 L 303.03 -15.19 Q 300.75 -15.19 299.1 -13.72 L 299.1 -13.72 Q 297.92 -12.65 297.31 -10.51 L 297.31 -10.51 Z M 329.83 -13.48 L 329.83 -13.48 L 328.25 -12.49 Q 326.19 -15.24 322.64 -15.24 L 322.64 -15.24 Q 319.79 -15.24 317.92 -13.41 Q 316.04 -11.58 316.04 -8.96 L 316.04 -8.96 Q 316.04 -7.26 316.9 -5.76 Q 317.77 -4.25 319.27 -3.43 Q 320.77 -2.61 322.64 -2.61 L 322.64 -2.61 Q 326.08 -2.61 328.25 -5.32 L 328.25 -5.32 L 329.83 -4.29 Q 328.71 -2.62 326.84 -1.71 Q 324.96 -0.79 322.55 -0.79 L 322.55 -0.79 Q 318.89 -0.79 316.46 -3.13 Q 314.03 -5.47 314.03 -8.81 L 314.03 -8.81 Q 314.03 -11.07 315.17 -13.01 Q 316.31 -14.94 318.28 -16.02 Q 320.26 -17.11 322.72 -17.11 L 322.72 -17.11 Q 324.25 -17.11 325.69 -16.64 Q 327.13 -16.17 328.13 -15.41 Q 329.14 -14.66 329.83 -13.48 Z M 339.25 -3 L 339.25 -3 Q 337.78 -2.21 336.36 -2.87 L 336.36 -2.87 Q 334.63 -4.19 334.72 -6.63 L 334.72 -6.63 L 334.72 -13.2 L 338.4 -13.2 L 338.4 -14.91 L 334.7 -14.91 L 334.7 -22.42 L 332.69 -22.42 L 332.69 -6.29 Q 332.66 -4.59 333.47 -3.17 L 333.47 -3.17 Q 334.8 -0.92 337.1 -0.79 L 337.1 -0.79 Q 338.31 -0.75 339.87 -1.35 L 339.87 -1.35 Q 339.63 -1.94 339.25 -3 Z M 343.75 -22.73 L 343.75 -22.73 Q 344.43 -22.73 344.92 -22.25 Q 345.41 -21.76 345.41 -21.08 L 345.41 -21.08 Q 345.41 -20.4 344.92 -19.92 Q 344.43 -19.43 343.75 -19.43 L 343.75 -19.43 Q 343.07 -19.43 342.59 -19.92 Q 342.11 -20.4 342.11 -21.08 L 342.11 -21.08 Q 342.11 -21.76 342.59 -22.25 Q 343.07 -22.73 343.75 -22.73 Z M 342.76 -0.81 L 342.76 -16.34 L 344.76 -16.34 L 344.76 -0.81 L 342.76 -0.81 Z M 356.23 -17.11 L 356.23 -17.11 Q 359.81 -17.11 362.17 -14.51 L 362.17 -14.51 Q 364.31 -12.14 364.31 -8.89 L 364.31 -8.89 Q 364.31 -5.65 362.05 -3.22 Q 359.78 -0.79 356.23 -0.79 L 356.23 -0.79 Q 352.66 -0.79 350.4 -3.22 Q 348.14 -5.65 348.14 -8.89 L 348.14 -8.89 Q 348.14 -12.12 350.28 -14.5 L 350.28 -14.5 Q 352.64 -17.11 356.23 -17.11 Z M 356.23 -15.15 L 356.23 -15.15 Q 353.75 -15.15 351.96 -13.31 Q 350.18 -11.47 350.18 -8.86 L 350.18 -8.86 Q 350.18 -7.18 350.99 -5.71 Q 351.81 -4.25 353.2 -3.46 Q 354.58 -2.68 356.23 -2.68 L 356.23 -2.68 Q 357.9 -2.68 359.28 -3.46 Q 360.66 -4.25 361.47 -5.71 Q 362.27 -7.18 362.27 -8.86 L 362.27 -8.86 Q 362.27 -11.47 360.49 -13.31 Q 358.71 -15.15 356.23 -15.15 Z M 367.98 -0.81 L 367.98 -6.7 L 367.95 -8.35 Q 367.91 -9.57 368.05 -10.42 L 368.05 -10.42 Q 368.36 -13.1 369.41 -14.34 L 369.41 -14.34 Q 370.43 -15.43 371.49 -16.03 L 371.49 -16.03 Q 373.25 -16.78 375.5 -16.74 L 375.5 -16.74 Q 377.25 -16.74 378.75 -15.85 Q 380.24 -14.97 380.88 -13.47 Q 381.52 -11.98 381.52 -8.79 L 381.52 -8.79 L 381.52 -0.81 L 379.53 -0.81 L 379.53 -8.21 Q 379.53 -10.9 379.31 -11.81 L 379.31 -11.81 Q 378.95 -13.35 377.91 -14 Q 376.86 -14.64 374.81 -14.64 L 374.81 -14.64 Q 372.99 -14.64 371.58 -13.59 Q 370.16 -12.55 370.26 -10.73 L 370.26 -10.73 Q 369.99 -9.57 369.99 -6.5 L 369.99 -6.5 L 369.99 -0.81 L 367.98 -0.81 Z M 401.37 -15.01 L 401.37 -15.01 L 400.1 -13.68 Q 398.48 -15.24 396.97 -15.24 L 396.97 -15.24 Q 395.99 -15.24 395.29 -14.6 Q 394.6 -13.96 394.6 -13.08 L 394.6 -13.08 Q 394.6 -12.35 395.18 -11.67 L 395.18 -11.67 Q 395.75 -10.95 397.57 -10.01 L 397.57 -10.01 Q 399.81 -8.86 400.6 -7.79 L 400.6 -7.79 Q 401.38 -6.7 401.38 -5.34 L 401.38 -5.34 Q 401.38 -3.44 400.05 -2.12 Q 398.71 -0.79 396.7 -0.79 L 396.7 -0.79 Q 395.35 -0.79 394.13 -1.37 Q 392.9 -1.94 392.11 -2.97 L 392.11 -2.97 L 393.37 -4.4 Q 394.9 -2.68 396.61 -2.68 L 396.61 -2.68 Q 397.8 -2.68 398.64 -3.45 Q 399.49 -4.22 399.49 -5.25 L 399.49 -5.25 Q 399.49 -6.12 398.93 -6.78 L 398.93 -6.78 Q 398.38 -7.45 396.43 -8.45 L 396.43 -8.45 Q 394.32 -9.52 393.57 -10.59 L 393.57 -10.59 Q 392.8 -11.64 392.8 -13 L 392.8 -13 Q 392.8 -14.77 394.01 -15.94 Q 395.22 -17.11 397.05 -17.11 L 397.05 -17.11 Q 399.19 -17.11 401.37 -15.01 Z M 412.23 -17.11 L 412.23 -17.11 Q 415.81 -17.11 418.18 -14.51 L 418.18 -14.51 Q 420.32 -12.14 420.32 -8.89 L 420.32 -8.89 Q 420.32 -5.65 418.05 -3.22 Q 415.78 -0.79 412.23 -0.79 L 412.23 -0.79 Q 408.66 -0.79 406.4 -3.22 Q 404.15 -5.65 404.15 -8.89 L 404.15 -8.89 Q 404.15 -12.12 406.28 -14.5 L 406.28 -14.5 Q 408.65 -17.11 412.23 -17.11 Z M 412.23 -15.15 L 412.23 -15.15 Q 409.75 -15.15 407.97 -13.31 Q 406.18 -11.47 406.18 -8.86 L 406.18 -8.86 Q 406.18 -7.18 407 -5.71 Q 407.81 -4.25 409.2 -3.46 Q 410.59 -2.68 412.23 -2.68 L 412.23 -2.68 Q 413.9 -2.68 415.28 -3.46 Q 416.66 -4.25 417.47 -5.71 Q 418.28 -7.18 418.28 -8.86 L 418.28 -8.86 Q 418.28 -11.47 416.49 -13.31 Q 414.71 -15.15 412.23 -15.15 Z M 423.69 -0.81 L 423.69 -22.34 L 425.7 -22.34 L 425.7 -0.81 L 423.69 -0.81 Z M 429.56 -9.23 L 429.56 -16.71 L 431.57 -16.71 L 431.57 -9.46 Q 431.57 -6.8 431.86 -5.81 L 431.86 -5.81 Q 432.28 -4.38 433.48 -3.55 Q 434.69 -2.72 436.37 -2.72 L 436.37 -2.72 Q 438.04 -2.72 439.21 -3.53 Q 440.37 -4.33 440.81 -5.65 L 440.81 -5.65 Q 441.12 -6.54 441.12 -9.46 L 441.12 -9.46 L 441.12 -16.71 L 443.16 -16.71 L 443.16 -9.08 Q 443.16 -5.86 442.4 -4.24 Q 441.64 -2.62 440.14 -1.71 Q 438.64 -0.79 436.37 -0.79 L 436.37 -0.79 Q 434.09 -0.79 432.58 -1.71 Q 431.06 -2.62 430.31 -4.27 Q 429.56 -5.92 429.56 -9.23 L 429.56 -9.23 Z M 453.17 -3 L 453.17 -3 Q 451.69 -2.21 450.28 -2.87 L 450.28 -2.87 Q 448.55 -4.19 448.64 -6.63 L 448.64 -6.63 L 448.64 -13.2 L 452.32 -13.2 L 452.32 -14.91 L 448.62 -14.91 L 448.62 -22.42 L 446.61 -22.42 L 446.61 -6.29 Q 446.58 -4.59 447.39 -3.17 L 447.39 -3.17 Q 448.72 -0.92 451.02 -0.79 L 451.02 -0.79 Q 452.23 -0.75 453.79 -1.35 L 453.79 -1.35 Q 453.55 -1.94 453.17 -3 Z M 457.67 -22.73 L 457.67 -22.73 Q 458.35 -22.73 458.84 -22.25 Q 459.33 -21.76 459.33 -21.08 L 459.33 -21.08 Q 459.33 -20.4 458.84 -19.92 Q 458.35 -19.43 457.67 -19.43 L 457.67 -19.43 Q 456.99 -19.43 456.51 -19.92 Q 456.03 -20.4 456.03 -21.08 L 456.03 -21.08 Q 456.03 -21.76 456.51 -22.25 Q 456.99 -22.73 457.67 -22.73 Z M 456.68 -0.81 L 456.68 -16.34 L 458.68 -16.34 L 458.68 -0.81 L 456.68 -0.81 Z M 470.15 -17.11 L 470.15 -17.11 Q 473.73 -17.11 476.09 -14.51 L 476.09 -14.51 Q 478.23 -12.14 478.23 -8.89 L 478.23 -8.89 Q 478.23 -5.65 475.97 -3.22 Q 473.7 -0.79 470.15 -0.79 L 470.15 -0.79 Q 466.58 -0.79 464.32 -3.22 Q 462.06 -5.65 462.06 -8.89 L 462.06 -8.89 Q 462.06 -12.12 464.2 -14.5 L 464.2 -14.5 Q 466.56 -17.11 470.15 -17.11 Z M 470.15 -15.15 L 470.15 -15.15 Q 467.67 -15.15 465.88 -13.31 Q 464.1 -11.47 464.1 -8.86 L 464.1 -8.86 Q 464.1 -7.18 464.91 -5.71 Q 465.73 -4.25 467.12 -3.46 Q 468.5 -2.68 470.15 -2.68 L 470.15 -2.68 Q 471.82 -2.68 473.2 -3.46 Q 474.58 -4.25 475.38 -5.71 Q 476.19 -7.18 476.19 -8.86 L 476.19 -8.86 Q 476.19 -11.47 474.41 -13.31 Q 472.62 -15.15 470.15 -15.15 Z M 481.9 -0.81 L 481.9 -6.7 L 481.87 -8.35 Q 481.83 -9.57 481.97 -10.42 L 481.97 -10.42 Q 482.28 -13.1 483.33 -14.34 L 483.33 -14.34 Q 484.35 -15.43 485.41 -16.03 L 485.41 -16.03 Q 487.17 -16.78 489.42 -16.74 L 489.42 -16.74 Q 491.17 -16.74 492.67 -15.85 Q 494.16 -14.97 494.8 -13.47 Q 495.44 -11.98 495.44 -8.79 L 495.44 -8.79 L 495.44 -0.81 L 493.45 -0.81 L 493.45 -8.21 Q 493.45 -10.9 493.23 -11.81 L 493.23 -11.81 Q 492.87 -13.35 491.82 -14 Q 490.78 -14.64 488.72 -14.64 L 488.72 -14.64 Q 486.91 -14.64 485.5 -13.59 Q 484.08 -12.55 484.18 -10.73 L 484.18 -10.73 Q 483.91 -9.57 483.91 -6.5 L 483.91 -6.5 L 483.91 -0.81 L 481.9 -0.81 Z M 507.5 -15.01 L 507.5 -15.01 L 506.23 -13.68 Q 504.61 -15.24 503.1 -15.24 L 503.1 -15.24 Q 502.12 -15.24 501.43 -14.6 Q 500.73 -13.96 500.73 -13.08 L 500.73 -13.08 Q 500.73 -12.35 501.31 -11.67 L 501.31 -11.67 Q 501.88 -10.95 503.71 -10.01 L 503.71 -10.01 Q 505.94 -8.86 506.74 -7.79 L 506.74 -7.79 Q 507.51 -6.7 507.51 -5.34 L 507.51 -5.34 Q 507.51 -3.44 506.18 -2.12 Q 504.84 -0.79 502.83 -0.79 L 502.83 -0.79 Q 501.48 -0.79 500.26 -1.37 Q 499.03 -1.94 498.24 -2.97 L 498.24 -2.97 L 499.5 -4.4 Q 501.03 -2.68 502.74 -2.68 L 502.74 -2.68 Q 503.93 -2.68 504.77 -3.45 Q 505.62 -4.22 505.62 -5.25 L 505.62 -5.25 Q 505.62 -6.12 505.06 -6.78 L 505.06 -6.78 Q 504.51 -7.45 502.56 -8.45 L 502.56 -8.45 Q 500.45 -9.52 499.7 -10.59 L 499.7 -10.59 Q 498.93 -11.64 498.93 -13 L 498.93 -13 Q 498.93 -14.77 500.14 -15.94 Q 501.35 -17.11 503.18 -17.11 L 503.18 -17.11 Q 505.32 -17.11 507.5 -15.01 Z" stroke-linecap="round" />
</g>
</svg>